<?xml version="1.0" encoding="utf-8"?>
<!-- Svg Vector Icons : http://www.onlinewebfonts.com/icon -->
<!DOCTYPE svg PUBLIC "-//W3C//DTD SVG 1.1//EN" "http://www.w3.org/Graphics/SVG/1.1/DTD/svg11.dtd">
<svg version="1.1" xmlns="http://www.w3.org/2000/svg" xmlns:xlink="http://www.w3.org/1999/xlink" x="0px" y="0px" viewBox="0 0 1000 1000" enable-background="new 0 0 1000 1000" xml:space="preserve">
<metadata> Svg Vector Icons : http://www.onlinewebfonts.com/icon </metadata>
<g><g transform="translate(0.000000,512.000000) scale(0.100000,-0.100000)"><path d="M2382.4,5016c-23-9.6-59.5-42.2-82.5-71c-40.3-49.9-40.3-59.5-40.3-995.6c0-915,1.9-945.7,38.4-993.6c74.8-94,218.7-99.8,299.2-11.5c34.5,38.4,36.4,80.6,36.4,1007.1v966.8l-48,48C2532,5019.8,2443.7,5041,2382.4,5016z"/><path d="M3757.7,5017.9c-24.9-7.7-65.2-38.4-86.3-67.1c-38.4-51.8-40.3-76.7-40.3-610v-554.4l59.5-59.5c107.4-105.5,274.3-65.2,316.5,76.7c13.4,44.1,17.3,255.1,13.4,590.8l-5.8,523.7l-48,48C3915,5017.9,3830.6,5039,3757.7,5017.9z"/><path d="M6117.2,5016c-24.9-5.8-65.2-36.4-86.3-65.2c-38.4-51.8-40.3-82.5-46-581.2c-5.8-460.4-1.9-533.3,26.8-592.7c59.5-128.5,201.4-151.5,303.1-49.9l59.5,59.5l5.8,485.3c3.8,264.7,0,519.8-5.8,565.9C6353.2,4975.7,6243.8,5052.5,6117.2,5016z"/><path d="M7486.8,5016c-21.1-9.6-55.6-36.4-76.7-59.5c-36.5-40.3-38.4-72.9-44.1-978.3c-1.9-579.3,1.9-953.4,13.4-984.1c48-122.8,222.5-153.5,314.6-51.8l51.8,57.5v949.5V4899l-51.8,57.5C7636.5,5017.9,7550.1,5042.9,7486.8,5016z"/><path d="M3353,2767.8c-870.9-381.7-1601.7-709.8-1626.7-732.8c-23-21.1-49.9-71-61.4-107.4c-24.9-94-24.9-2921.5,0-3015.5c9.6-36.4,42.2-90.1,71-117c46-42.2,3027-1914.4,3170.9-1991.2c24.9-13.4,72.9-24.9,107.4-23c42.2,1.9,485.3,268.6,1630.5,984.1c863.2,539,1594.1,1003.2,1624.8,1030.1c28.8,26.9,61.4,80.6,71,117c24.9,94,24.9,2921.5,0,3015.5c-11.5,36.4-38.4,86.3-61.4,107.4c-71,63.3-3201.6,1425.3-3278.3,1425.3C4958.6,3460.3,4394.6,3222.5,3353,2767.8z M6316.7,2468.6c717.4-312.7,1312.1-575.5,1321.7-583.1s-579.3-312.7-1310.2-677.1L5002.7,544.6l-1325.5,663.7c-728.9,364.5-1321.7,667.5-1314,673.3c15.4,15.3,2605,1152.9,2629.9,1154.8C5004.6,3038.3,5599.3,2783.2,6316.7,2468.6z M4791.7-1222.1c0-1129.8-5.8-1417.6-23-1406.1c-13.4,7.7-627.3,389.4-1362,847.9L2067.8-944V308.6v1252.6l1362-681l1362-681V-1222.1z M7937.6,308.6V-944l-1337-836.4c-736.6-458.5-1350.4-840.2-1362-847.9c-19.2-11.5-24.9,276.2-24.9,1406.1V199.3l1358.1,679.1c746.2,374.1,1358.1,681,1362,681C7935.7,1561.2,7937.6,997.3,7937.6,308.6z"/><path d="M8350.1-1885.8c-111.3-21.1-195.7-120.8-172.6-203.3c28.8-99.7,76.7-143.9,504.5-477.6l448.9-351l-790.3-9.6l-790.3-9.6l-57.5-65.2c-94-103.6-76.7-157.3,211-663.7c138.1-241.7,247.5-443.1,245.5-445c-1.9-1.9-477.6,159.2-1057,360.6c-579.3,199.5-1078.1,362.6-1106.8,362.6c-28.8,0-72.9-9.6-97.8-21.1c-25-11.5-191.8-212.9-370.2-448.9c-178.4-235.9-329.9-429.7-335.7-429.7c-5.8-1.9-260.9,236-565.9,527.5c-305,291.6-579.3,546.7-611.9,565.9c-30.7,19.2-78.6,36.5-105.5,36.5c-26.9,0-404.8-205.3-880.5-479.6c-458.5-262.8-836.4-475.7-838.3-473.8c-1.9,1.9,38.4,203.3,90.2,445c111.3,527.5,113.2,567.8,38.4,642.6c-30.7,30.7-74.8,59.5-99.8,65.2c-24.9,5.8-283.9,57.6-573.6,113.2l-527.5,103.6l374.1,182.2c205.3,99.7,389.4,199.5,408.6,220.6c120.9,138.1-1.9,354.9-180.3,314.6c-36.4-9.6-356.8-159.2-711.7-333.8C209-2645.5,147.6-2680,118.8-2739.5c-38.4-82.5-17.3-180.3,55.6-234c38.4-26.9,247.5-76.7,803.8-186.1c746.2-145.8,753.9-147.7,748.1-191.8c-1.9-24.9-57.5-299.3-120.9-606.2c-105.5-504.5-115.1-567.8-94-621.5c36.4-86.3,117-130.4,207.2-113.2c42.2,7.7,468.1,239.8,1001.3,546.7c512.2,293.5,936.1,535.2,943.8,541c7.7,3.8,282-249.4,611.9-564c328-314.6,615.8-581.2,638.8-594.6c51.8-30.7,111.3-30.7,172.6-3.8c26.9,13.4,203.3,228.3,395.2,479.6c191.8,251.3,354.9,462.3,362.5,466.2c7.7,5.7,540.9-170.7,1183.6-393.2c642.6-222.5,1214.3-414.4,1269.9-429.7c117-30.7,195.7-13.4,241.7,57.6c67.1,101.7,46,153.5-266.7,709.7c-163,291.6-297.3,533.3-297.3,537.1c0,5.8,385.6,9.6,859.4,9.6c512.2,0,884.3,7.7,926.5,19.2c99.8,28.8,138.1,80.6,138.1,186.1c0,76.7-7.7,95.9-65.2,147.7c-130.5,118.9-1358.1,1066.5-1402.3,1081.9C8407.6-1885.8,8371.2-1882,8350.1-1885.8z"/></g></g>
</svg>