<svg xmlns="http://www.w3.org/2000/svg" xmlns:xlink="http://www.w3.org/1999/xlink" version="1.1" x="0px" y="0px" viewBox="0 0 100 125" enable-background="new 0 0 100 100" xml:space="preserve"><g display="none"><rect x="14" y="4" display="inline" stroke="#000000" stroke-width="0.5" stroke-miterlimit="10" width="72" height="72"/></g><path fill="none" d="M30.453,46.879c-7.961-0.756-19.146-2.363-24.219-5.631v15.839c0,1.474,5.961,4.994,24.219,6.751v-6.756v-6.747  V46.879z"/><path fill="none" d="M61.758,48.846l-6.007,7.36L67.99,70.197v-6.21l1.218-0.113c18.555-1.757,24.557-5.332,24.557-6.787V41.235  c-5.176,3.331-16.688,4.933-24.304,5.653l-1.471,0.141v-5.824l-4.67,5.722l0,0L61.758,48.846z"/><path fill="none" d="M57.648,29.912c-2.417-0.084-9.818-0.121-10.979-0.106C19.744,30.201,6.23,34.904,6.23,37.427  c0,1.509,6.277,5.177,25.683,6.886l1.229,0.107v1.232v1.751c5.368-0.428,11.032-0.646,16.857-0.646c3.294,0,6.592,0.072,9.814,0.213  l1.425-1.743l9.439-11.563v10.412c0.058-0.008,0.12-0.012,0.18-0.02c0.112-0.012,0.224-0.023,0.338-0.035  c0.432-0.047,0.856-0.094,1.274-0.143c0.129-0.016,0.256-0.03,0.385-0.045c0.393-0.049,0.778-0.094,1.158-0.143  c0.142-0.018,0.274-0.033,0.414-0.054c0.358-0.046,0.714-0.093,1.062-0.14c0.145-0.021,0.282-0.042,0.426-0.062  c0.333-0.049,0.663-0.095,0.984-0.144c0.145-0.021,0.282-0.045,0.427-0.064c0.308-0.047,0.615-0.096,0.914-0.145  c0.146-0.023,0.288-0.049,0.436-0.073c0.282-0.047,0.562-0.094,0.838-0.141c0.146-0.025,0.291-0.052,0.434-0.077  c0.264-0.051,0.525-0.098,0.78-0.146c0.142-0.025,0.279-0.054,0.42-0.081c0.248-0.049,0.492-0.098,0.73-0.145  c0.137-0.028,0.271-0.057,0.406-0.086c0.231-0.047,0.463-0.097,0.688-0.146c0.132-0.028,0.257-0.06,0.385-0.087  c0.218-0.048,0.433-0.097,0.642-0.146c0.127-0.029,0.248-0.06,0.371-0.089c0.202-0.048,0.405-0.097,0.6-0.147  c0.122-0.03,0.238-0.063,0.358-0.094c0.187-0.046,0.367-0.095,0.547-0.144c0.116-0.032,0.235-0.064,0.351-0.097  c0.174-0.047,0.341-0.098,0.505-0.146c0.111-0.032,0.222-0.065,0.329-0.096c0.162-0.049,0.319-0.097,0.474-0.146  c0.104-0.032,0.209-0.064,0.309-0.098c0.149-0.047,0.294-0.095,0.438-0.142c0.099-0.034,0.194-0.066,0.292-0.101  c0.136-0.047,0.269-0.094,0.397-0.141c0.093-0.034,0.188-0.066,0.277-0.101c0.124-0.047,0.244-0.094,0.363-0.139  c0.086-0.032,0.175-0.066,0.258-0.101c0.115-0.047,0.226-0.092,0.333-0.137c0.08-0.034,0.158-0.066,0.235-0.099  c0.105-0.047,0.204-0.09,0.303-0.135c0.073-0.032,0.149-0.066,0.219-0.101c0.094-0.043,0.183-0.085,0.269-0.126  c0.068-0.036,0.141-0.07,0.208-0.103c0.082-0.043,0.16-0.085,0.237-0.124c0.063-0.034,0.124-0.066,0.184-0.099  c0.076-0.044,0.148-0.085,0.221-0.126c0.052-0.031,0.107-0.063,0.158-0.094c0.065-0.042,0.128-0.081,0.188-0.119  c0.051-0.03,0.1-0.063,0.146-0.095c0.056-0.038,0.11-0.076,0.162-0.111c0.043-0.031,0.086-0.065,0.128-0.094  c0.051-0.036,0.095-0.074,0.141-0.111c0.035-0.029,0.073-0.058,0.106-0.087c0.043-0.034,0.081-0.069,0.119-0.105  c0.027-0.027,0.062-0.058,0.09-0.085c0.034-0.036,0.064-0.07,0.095-0.105c0.022-0.023,0.048-0.053,0.068-0.076  c0.029-0.036,0.052-0.068,0.076-0.103c0.018-0.023,0.036-0.048,0.052-0.071c0.021-0.035,0.038-0.065,0.056-0.1  c0.01-0.021,0.025-0.043,0.034-0.064c0.017-0.034,0.025-0.066,0.035-0.101c0.005-0.017,0.016-0.034,0.018-0.052  c0.013-0.047,0.02-0.094,0.02-0.141C93.768,34.865,80.903,30.714,57.648,29.912z"/><path d="M61.758,48.844l1.564-1.917l0,0l4.668-5.722v5.822l1.471-0.139c7.616-0.723,19.128-2.324,24.307-5.653v15.852  c0,1.455-6.004,5.028-24.559,6.783l-1.219,0.117v6.208L55.753,56.206L61.758,48.844z"/><path stroke="#000000" stroke-width="1.0266" stroke-miterlimit="10" d="M6.234,41.25c5.07,3.266,16.258,4.875,24.219,5.631v3.454  v6.747v6.756c-18.258-1.757-24.219-5.279-24.219-6.751V41.25z"/><path d="M57.652,29.9c23.255,0.801,36.117,4.953,36.117,7.518c0,0.045-0.006,0.094-0.018,0.141  c-0.004,0.018-0.014,0.035-0.019,0.052c-0.011,0.036-0.02,0.066-0.033,0.103c-0.013,0.02-0.025,0.041-0.038,0.063  c-0.018,0.034-0.031,0.064-0.053,0.1c-0.017,0.023-0.037,0.047-0.054,0.071c-0.025,0.034-0.047,0.066-0.074,0.101  c-0.021,0.025-0.047,0.055-0.068,0.078c-0.033,0.035-0.063,0.068-0.097,0.105c-0.026,0.027-0.061,0.056-0.09,0.085  c-0.039,0.034-0.074,0.069-0.117,0.105c-0.033,0.029-0.068,0.06-0.106,0.087c-0.047,0.037-0.093,0.073-0.142,0.111  c-0.041,0.03-0.085,0.061-0.128,0.094c-0.054,0.035-0.105,0.073-0.162,0.111c-0.046,0.03-0.098,0.063-0.146,0.094  c-0.063,0.037-0.124,0.077-0.188,0.12c-0.054,0.028-0.109,0.062-0.161,0.092c-0.072,0.041-0.145,0.083-0.219,0.126  c-0.06,0.032-0.123,0.063-0.184,0.097c-0.077,0.042-0.157,0.083-0.239,0.126c-0.067,0.032-0.137,0.066-0.206,0.101  c-0.088,0.042-0.175,0.085-0.268,0.128c-0.072,0.034-0.146,0.068-0.22,0.101c-0.098,0.045-0.199,0.088-0.302,0.133  c-0.077,0.034-0.155,0.067-0.235,0.101c-0.107,0.045-0.218,0.09-0.334,0.137c-0.082,0.033-0.171,0.068-0.257,0.102  c-0.12,0.045-0.239,0.092-0.363,0.138c-0.09,0.034-0.187,0.067-0.278,0.101c-0.131,0.047-0.261,0.094-0.397,0.139  c-0.098,0.036-0.195,0.066-0.294,0.101c-0.145,0.047-0.287,0.096-0.436,0.145c-0.103,0.032-0.206,0.064-0.312,0.097  c-0.151,0.049-0.31,0.098-0.471,0.146c-0.107,0.03-0.218,0.063-0.329,0.096c-0.166,0.048-0.334,0.097-0.505,0.144  c-0.116,0.032-0.235,0.066-0.354,0.1c-0.18,0.048-0.361,0.097-0.548,0.144c-0.116,0.03-0.235,0.063-0.355,0.093  c-0.196,0.049-0.397,0.098-0.603,0.146c-0.123,0.03-0.244,0.061-0.368,0.09c-0.212,0.049-0.427,0.097-0.645,0.147  c-0.128,0.026-0.253,0.058-0.385,0.084c-0.227,0.051-0.457,0.099-0.688,0.149c-0.133,0.027-0.27,0.056-0.406,0.083  c-0.238,0.048-0.482,0.097-0.73,0.146c-0.137,0.027-0.274,0.056-0.419,0.081c-0.256,0.048-0.517,0.095-0.781,0.144  c-0.143,0.025-0.287,0.053-0.434,0.077c-0.276,0.049-0.556,0.098-0.838,0.145c-0.147,0.022-0.289,0.048-0.438,0.071  c-0.299,0.049-0.604,0.098-0.911,0.145c-0.142,0.021-0.282,0.043-0.427,0.064c-0.321,0.049-0.651,0.096-0.984,0.142  c-0.144,0.022-0.281,0.042-0.426,0.062c-0.348,0.049-0.703,0.096-1.062,0.143c-0.14,0.018-0.273,0.035-0.414,0.054  c-0.38,0.048-0.769,0.093-1.158,0.142c-0.129,0.015-0.256,0.029-0.385,0.045c-0.415,0.049-0.843,0.096-1.273,0.143  c-0.112,0.012-0.224,0.023-0.338,0.035c-0.061,0.006-0.123,0.014-0.181,0.019V33.652l-9.439,11.573l-1.425,1.743  c-3.223-0.141-6.522-0.213-9.814-0.213c-5.827,0-11.487,0.22-16.861,0.646V45.65v-1.232l-1.225-0.107  C12.51,42.603,6.23,38.936,6.23,37.427c0-2.522,13.514-7.228,40.439-7.622C47.832,29.793,55.233,29.828,57.652,29.9z"/><text x="0" y="115" fill="#000000" font-size="5px" font-weight="bold" font-family="'Helvetica Neue', Helvetica, Arial-Unicode, Arial, Sans-serif">Created by Louis Dawson</text><text x="0" y="120" fill="#000000" font-size="5px" font-weight="bold" font-family="'Helvetica Neue', Helvetica, Arial-Unicode, Arial, Sans-serif">from the Noun Project</text></svg>