<svg xmlns="http://www.w3.org/2000/svg" xmlns:xlink="http://www.w3.org/1999/xlink" version="1.1" x="0px" y="0px" viewBox="0 0 100 125" enable-background="new 0 0 100 100" xml:space="preserve"><g display="none"><rect x="14" y="4" display="inline" stroke="#000000" stroke-width="0.5" stroke-miterlimit="10" width="72" height="72"/></g><path fill="none" d="M47.5,67.99h-6.572h-6.581c1.711,17.784,5.142,23.591,6.575,23.591H56.35  c-3.183-4.939-4.75-15.837-5.484-23.591H47.5z"/><path fill="none" d="M50.818,35.973L50.818,35.973l5.574-4.547h-5.674l0.137-1.433c0.703-7.418,2.264-18.632,5.507-23.675h-15.44  c-1.418,0-4.899,5.848-6.61,23.921L34.2,31.426h-6.048l13.627,11.92l7.17-5.85L50.818,35.973z"/><path fill="none" d="M60.071,6.318c-0.045,0-0.091,0.006-0.137,0.018c-0.018,0.004-0.035,0.012-0.052,0.018  c-0.032,0.009-0.063,0.02-0.098,0.034c-0.021,0.009-0.042,0.023-0.063,0.035c-0.031,0.017-0.063,0.032-0.096,0.053  c-0.022,0.015-0.046,0.034-0.069,0.051c-0.033,0.024-0.064,0.046-0.1,0.073c-0.024,0.021-0.051,0.045-0.074,0.067  c-0.034,0.031-0.067,0.06-0.103,0.094c-0.026,0.027-0.056,0.059-0.082,0.087c-0.034,0.038-0.069,0.073-0.104,0.115  c-0.027,0.032-0.056,0.068-0.084,0.103c-0.037,0.044-0.073,0.088-0.109,0.138c-0.028,0.039-0.061,0.082-0.09,0.124  c-0.036,0.051-0.073,0.102-0.11,0.158c-0.03,0.045-0.062,0.095-0.092,0.143c-0.038,0.06-0.076,0.118-0.116,0.183  c-0.029,0.05-0.062,0.104-0.091,0.156c-0.041,0.069-0.081,0.139-0.122,0.213c-0.031,0.058-0.063,0.118-0.096,0.178  c-0.04,0.076-0.08,0.153-0.121,0.234c-0.032,0.064-0.065,0.133-0.1,0.201c-0.041,0.085-0.081,0.17-0.124,0.26  c-0.032,0.069-0.064,0.143-0.098,0.214c-0.043,0.097-0.086,0.194-0.13,0.295c-0.032,0.074-0.063,0.152-0.097,0.229  c-0.044,0.106-0.088,0.213-0.133,0.325c-0.032,0.083-0.065,0.167-0.098,0.252c-0.045,0.115-0.09,0.232-0.135,0.353  c-0.032,0.087-0.064,0.18-0.098,0.271c-0.046,0.126-0.091,0.255-0.137,0.387c-0.032,0.093-0.063,0.188-0.097,0.285  c-0.046,0.139-0.093,0.28-0.139,0.426c-0.031,0.098-0.063,0.199-0.095,0.301c-0.047,0.15-0.094,0.303-0.141,0.46  c-0.03,0.105-0.062,0.212-0.094,0.321c-0.047,0.161-0.095,0.325-0.141,0.492c-0.031,0.112-0.063,0.227-0.095,0.342  c-0.047,0.174-0.094,0.353-0.141,0.533c-0.029,0.116-0.061,0.231-0.09,0.348c-0.049,0.191-0.097,0.387-0.144,0.585  c-0.028,0.119-0.058,0.239-0.086,0.361c-0.048,0.204-0.096,0.414-0.143,0.625c-0.027,0.124-0.056,0.248-0.084,0.375  c-0.048,0.219-0.096,0.444-0.143,0.672c-0.028,0.131-0.056,0.262-0.083,0.395c-0.046,0.231-0.094,0.47-0.141,0.711  c-0.026,0.136-0.053,0.271-0.078,0.409c-0.048,0.249-0.094,0.503-0.142,0.76c-0.024,0.141-0.051,0.279-0.075,0.423  c-0.046,0.267-0.092,0.541-0.138,0.817c-0.024,0.142-0.049,0.281-0.071,0.424c-0.047,0.29-0.094,0.588-0.14,0.889  c-0.021,0.139-0.043,0.275-0.063,0.416c-0.047,0.313-0.093,0.635-0.14,0.959c-0.02,0.138-0.038,0.274-0.059,0.414  c-0.047,0.338-0.092,0.686-0.138,1.035c-0.018,0.135-0.034,0.265-0.052,0.402c-0.047,0.369-0.092,0.747-0.138,1.129  c-0.015,0.125-0.029,0.248-0.044,0.374c-0.047,0.406-0.093,0.822-0.139,1.242c-0.011,0.111-0.023,0.219-0.035,0.33  c-0.006,0.058-0.011,0.117-0.018,0.175h10.142l-11.264,9.195l-1.697,1.386c0.137,3.14,0.207,6.353,0.207,9.561  c0,5.674-0.213,11.19-0.63,16.421h1.706h1.199l0.105,1.196c1.663,18.901,5.236,25.016,6.706,25.016  c2.458,0,7.039-13.163,7.424-39.391c0.015-1.129-0.021-8.339-0.103-10.693C66.611,18.847,62.567,6.318,60.071,6.318z"/><path d="M41.779,43.347l-13.626-11.92H34.2l0.113-1.187c1.709-18.075,5.19-23.921,6.608-23.921h15.44  c-3.243,5.042-4.804,16.257-5.507,23.675l-0.137,1.433h5.674l-5.574,4.547l0,0l-1.868,1.524L41.779,43.347z"/><path stroke="#000000" stroke-miterlimit="10" d="M40.922,91.581c-1.434,0-4.864-5.807-6.575-23.591h6.581H47.5h3.366  c0.734,7.754,2.302,18.651,5.483,23.591H40.922z"/><path d="M67.494,52.191c-0.384,26.228-4.967,39.39-7.425,39.39c-1.469,0-5.041-6.115-6.705-25.016l-0.105-1.194h-1.2h-1.705  c0.416-5.232,0.629-10.748,0.629-16.422c0-3.208-0.068-6.421-0.206-9.561l1.697-1.387l11.273-9.195H53.606  c0.006-0.058,0.012-0.118,0.019-0.176c0.011-0.111,0.022-0.219,0.035-0.33c0.045-0.419,0.091-0.835,0.138-1.241  c0.015-0.126,0.029-0.249,0.044-0.374c0.046-0.381,0.091-0.76,0.138-1.129c0.018-0.136,0.034-0.267,0.052-0.402  c0.046-0.35,0.092-0.696,0.138-1.035c0.02-0.14,0.04-0.276,0.06-0.414c0.046-0.324,0.092-0.646,0.139-0.959  c0.021-0.141,0.043-0.278,0.063-0.416c0.046-0.3,0.093-0.598,0.14-0.888c0.022-0.144,0.047-0.284,0.07-0.425  c0.046-0.276,0.093-0.55,0.14-0.817c0.024-0.143,0.051-0.283,0.075-0.424c0.047-0.257,0.093-0.511,0.141-0.76  c0.025-0.139,0.052-0.273,0.078-0.409c0.047-0.241,0.094-0.479,0.142-0.711c0.027-0.133,0.054-0.264,0.081-0.395  c0.048-0.227,0.096-0.452,0.144-0.671c0.028-0.127,0.057-0.251,0.084-0.375c0.048-0.212,0.096-0.422,0.143-0.626  c0.028-0.122,0.058-0.241,0.087-0.361c0.047-0.199,0.095-0.394,0.143-0.585c0.03-0.119,0.061-0.234,0.09-0.348  c0.047-0.181,0.094-0.359,0.141-0.534c0.031-0.115,0.063-0.229,0.096-0.343c0.046-0.167,0.092-0.331,0.14-0.492  c0.03-0.108,0.063-0.215,0.094-0.321c0.047-0.156,0.094-0.309,0.141-0.46c0.031-0.102,0.063-0.202,0.095-0.301  c0.046-0.145,0.094-0.286,0.14-0.425c0.032-0.096,0.063-0.191,0.097-0.285c0.045-0.132,0.09-0.261,0.136-0.388  c0.032-0.091,0.064-0.183,0.098-0.271c0.045-0.12,0.09-0.237,0.134-0.353c0.032-0.084,0.066-0.17,0.099-0.252  c0.045-0.112,0.089-0.219,0.133-0.325c0.032-0.078,0.063-0.155,0.097-0.229c0.044-0.102,0.087-0.198,0.13-0.294  c0.032-0.072,0.064-0.145,0.099-0.214c0.041-0.089,0.083-0.175,0.124-0.26c0.032-0.067,0.065-0.136,0.099-0.201  c0.041-0.081,0.081-0.158,0.121-0.234c0.032-0.06,0.063-0.12,0.096-0.178c0.042-0.074,0.081-0.144,0.121-0.213  c0.031-0.052,0.062-0.106,0.091-0.156c0.041-0.064,0.079-0.123,0.117-0.184c0.03-0.048,0.062-0.098,0.092-0.143  c0.037-0.056,0.074-0.106,0.11-0.158c0.03-0.042,0.061-0.085,0.09-0.125c0.037-0.049,0.072-0.093,0.109-0.138  c0.027-0.035,0.057-0.071,0.084-0.103c0.034-0.042,0.069-0.077,0.104-0.115c0.027-0.029,0.055-0.061,0.081-0.087  c0.036-0.034,0.068-0.063,0.104-0.094c0.023-0.022,0.05-0.046,0.075-0.067c0.033-0.027,0.065-0.049,0.099-0.073  c0.024-0.016,0.047-0.036,0.069-0.051c0.032-0.021,0.063-0.036,0.096-0.053c0.021-0.011,0.043-0.024,0.062-0.035  c0.034-0.016,0.064-0.024,0.099-0.034c0.017-0.004,0.034-0.014,0.051-0.017c0.047-0.012,0.094-0.018,0.138-0.018  c2.497,0,6.542,12.528,7.321,35.181C67.474,43.851,67.509,51.063,67.494,52.191z"/><text x="0" y="115" fill="#000000" font-size="5px" font-weight="bold" font-family="'Helvetica Neue', Helvetica, Arial-Unicode, Arial, Sans-serif">Created by Louis Dawson</text><text x="0" y="120" fill="#000000" font-size="5px" font-weight="bold" font-family="'Helvetica Neue', Helvetica, Arial-Unicode, Arial, Sans-serif">from the Noun Project</text></svg>