<svg xmlns="http://www.w3.org/2000/svg" xmlns:xlink="http://www.w3.org/1999/xlink" version="1.1" x="0px" y="0px" viewBox="0 0 100 125" enable-background="new 0 0 100 100" xml:space="preserve"><g display="none"><rect x="14" y="4" display="inline" stroke="#000000" stroke-width="0.5" stroke-miterlimit="10" width="72" height="72"/></g><g><g><path fill="none" d="M44.785,67.99c-0.735,7.754-2.302,18.651-5.484,23.591h15.428c1.434,0,4.864-5.807,6.575-23.591h-6.581    h-6.572H44.785z"/><path fill="none" d="M46.701,37.497l7.17,5.85l13.627-11.92H61.45l-0.111-1.187c-1.711-18.073-5.192-23.921-6.61-23.921h-15.44    c3.243,5.042,4.804,16.257,5.507,23.675l0.136,1.433h-5.673l5.574,4.547l0,0L46.701,37.497z"/><path fill="none" d="M28.258,41.5c-0.081,2.354-0.117,9.564-0.103,10.693c0.385,26.228,4.966,39.391,7.424,39.391    c1.47,0,5.043-6.114,6.706-25.016l0.105-1.196h1.2h1.706c-0.417-5.23-0.629-10.747-0.629-16.421c0-3.208,0.07-6.421,0.207-9.561    l-1.697-1.386l-11.264-9.195h10.142c-0.007-0.058-0.012-0.118-0.018-0.175c-0.012-0.111-0.024-0.219-0.035-0.33    c-0.046-0.419-0.092-0.835-0.139-1.242c-0.015-0.126-0.029-0.248-0.044-0.374c-0.046-0.382-0.091-0.76-0.138-1.129    c-0.018-0.137-0.034-0.267-0.052-0.402c-0.046-0.349-0.091-0.696-0.138-1.035c-0.021-0.14-0.039-0.276-0.059-0.414    c-0.047-0.324-0.093-0.646-0.14-0.959c-0.021-0.141-0.043-0.276-0.063-0.416c-0.046-0.3-0.093-0.599-0.14-0.889    c-0.022-0.144-0.047-0.282-0.071-0.424c-0.046-0.276-0.092-0.55-0.138-0.817c-0.024-0.144-0.051-0.283-0.075-0.423    c-0.048-0.257-0.094-0.512-0.142-0.76c-0.025-0.138-0.052-0.273-0.078-0.409c-0.047-0.241-0.095-0.479-0.141-0.711    c-0.027-0.133-0.055-0.264-0.083-0.395c-0.047-0.228-0.095-0.453-0.143-0.672c-0.028-0.127-0.057-0.251-0.084-0.375    c-0.047-0.212-0.095-0.421-0.143-0.625c-0.028-0.123-0.058-0.242-0.086-0.361c-0.047-0.198-0.095-0.394-0.144-0.585    c-0.029-0.117-0.061-0.232-0.09-0.348c-0.047-0.181-0.094-0.359-0.141-0.533c-0.032-0.115-0.063-0.23-0.095-0.342    c-0.046-0.167-0.094-0.331-0.141-0.492c-0.032-0.109-0.063-0.216-0.094-0.321c-0.047-0.157-0.094-0.31-0.141-0.46    c-0.032-0.102-0.063-0.203-0.095-0.301c-0.046-0.146-0.093-0.287-0.139-0.426c-0.033-0.097-0.064-0.192-0.097-0.285    c-0.046-0.132-0.091-0.261-0.137-0.387c-0.033-0.091-0.065-0.183-0.098-0.271c-0.045-0.121-0.09-0.237-0.135-0.353    c-0.032-0.085-0.065-0.17-0.098-0.252c-0.045-0.112-0.089-0.219-0.133-0.325c-0.033-0.077-0.064-0.154-0.097-0.229    c-0.044-0.101-0.087-0.198-0.13-0.295c-0.033-0.071-0.065-0.145-0.098-0.214c-0.043-0.09-0.083-0.175-0.124-0.26    c-0.034-0.067-0.067-0.136-0.1-0.201c-0.041-0.081-0.081-0.158-0.121-0.234c-0.033-0.06-0.064-0.12-0.096-0.178    c-0.041-0.074-0.081-0.144-0.122-0.213c-0.029-0.052-0.062-0.106-0.091-0.156c-0.04-0.064-0.078-0.123-0.116-0.183    c-0.03-0.048-0.062-0.098-0.092-0.143c-0.037-0.056-0.074-0.107-0.11-0.158c-0.029-0.042-0.062-0.085-0.09-0.124    c-0.036-0.05-0.072-0.094-0.109-0.138c-0.028-0.034-0.057-0.07-0.084-0.103c-0.034-0.042-0.069-0.077-0.104-0.115    c-0.026-0.028-0.056-0.061-0.082-0.087c-0.035-0.034-0.068-0.063-0.103-0.094c-0.023-0.022-0.05-0.046-0.074-0.067    c-0.035-0.027-0.066-0.049-0.1-0.073c-0.023-0.017-0.047-0.036-0.069-0.051c-0.033-0.021-0.064-0.036-0.096-0.053    c-0.021-0.012-0.042-0.025-0.063-0.035c-0.034-0.014-0.065-0.024-0.098-0.034c-0.017-0.006-0.034-0.014-0.052-0.018    c-0.046-0.011-0.092-0.018-0.137-0.018C33.083,6.318,29.039,18.847,28.258,41.5z"/><path d="M25.535,52.226c0.229,15.592,2.601,41.976,10.044,41.976h19.149c6.009,0,8.415-17.172,9.315-27.407l0.125-1.423h-9.448    h-6.787c-0.424-5.229-0.648-10.737-0.648-16.422c0-2.507,0.058-5.003,0.143-7.478l6.501,5.303l20.538-17.968H63.83    c-1.009-9.902-3.477-25.108-9.102-25.108H35.579c-6.378,0-9.341,20.314-9.939,37.71C25.557,43.855,25.521,51.052,25.535,52.226z     M46.7,37.497l-1.868-1.524l0,0l-5.574-4.547h5.673l-0.136-1.433c-0.703-7.418-2.264-18.632-5.507-23.675h15.44    c1.418,0,4.899,5.847,6.608,23.921l0.113,1.187h6.047l-13.626,11.92L46.7,37.497z M39.302,91.581    c3.182-4.939,4.749-15.837,5.484-23.591h3.365h6.572h6.581c-1.711,17.784-5.142,23.591-6.575,23.591H39.302z M28.248,41.496    c0.779-22.652,4.824-35.181,7.321-35.181c0.044,0,0.091,0.006,0.138,0.018c0.017,0.003,0.034,0.013,0.051,0.017    c0.034,0.01,0.064,0.019,0.099,0.034c0.019,0.01,0.04,0.024,0.062,0.035c0.032,0.017,0.063,0.032,0.096,0.053    c0.022,0.015,0.045,0.035,0.069,0.051c0.033,0.024,0.065,0.046,0.099,0.073c0.025,0.021,0.052,0.045,0.075,0.067    c0.035,0.031,0.067,0.06,0.104,0.094c0.026,0.026,0.054,0.058,0.081,0.087c0.034,0.038,0.069,0.073,0.104,0.115    c0.027,0.031,0.057,0.067,0.084,0.103c0.037,0.045,0.072,0.089,0.109,0.138c0.029,0.04,0.06,0.083,0.09,0.125    c0.036,0.052,0.073,0.102,0.11,0.158C36.969,7.526,37,7.577,37.03,7.625c0.038,0.061,0.076,0.12,0.117,0.184    c0.029,0.05,0.06,0.104,0.091,0.156c0.04,0.069,0.079,0.139,0.121,0.213c0.032,0.058,0.063,0.119,0.096,0.178    c0.04,0.076,0.08,0.153,0.121,0.234c0.033,0.064,0.066,0.133,0.099,0.201c0.041,0.085,0.083,0.17,0.124,0.26    c0.034,0.07,0.066,0.142,0.099,0.214c0.043,0.096,0.086,0.193,0.13,0.294c0.033,0.075,0.064,0.152,0.097,0.229    c0.044,0.105,0.088,0.213,0.133,0.325c0.032,0.082,0.066,0.167,0.099,0.252c0.044,0.116,0.089,0.232,0.134,0.353    c0.033,0.088,0.065,0.18,0.098,0.271c0.046,0.127,0.091,0.255,0.136,0.388c0.034,0.094,0.064,0.188,0.097,0.285    c0.046,0.14,0.094,0.281,0.14,0.425c0.032,0.099,0.063,0.2,0.095,0.301c0.047,0.151,0.094,0.304,0.141,0.46    c0.031,0.106,0.063,0.212,0.094,0.321c0.048,0.161,0.094,0.325,0.14,0.492c0.032,0.113,0.064,0.228,0.096,0.343    c0.047,0.175,0.094,0.353,0.141,0.534c0.029,0.114,0.06,0.229,0.09,0.348c0.048,0.191,0.096,0.386,0.143,0.585    c0.029,0.12,0.059,0.239,0.087,0.361c0.047,0.205,0.095,0.414,0.143,0.626c0.027,0.124,0.056,0.248,0.084,0.375    c0.048,0.22,0.096,0.445,0.144,0.671c0.027,0.13,0.054,0.262,0.081,0.395c0.048,0.233,0.095,0.47,0.142,0.711    c0.026,0.135,0.053,0.27,0.078,0.409c0.048,0.249,0.094,0.503,0.141,0.76c0.024,0.141,0.051,0.281,0.075,0.424    c0.047,0.267,0.094,0.541,0.14,0.817c0.023,0.141,0.048,0.281,0.07,0.425c0.047,0.291,0.094,0.588,0.14,0.888    c0.021,0.138,0.043,0.275,0.063,0.416c0.047,0.313,0.093,0.635,0.139,0.959c0.02,0.138,0.04,0.273,0.06,0.414    c0.046,0.339,0.092,0.686,0.138,1.035c0.018,0.135,0.034,0.266,0.052,0.402c0.047,0.369,0.092,0.748,0.138,1.129    c0.015,0.125,0.029,0.248,0.044,0.374c0.047,0.406,0.093,0.822,0.138,1.241c0.013,0.111,0.024,0.219,0.035,0.33    c0.007,0.058,0.013,0.118,0.019,0.176H31.903l11.273,9.195l1.697,1.387c-0.137,3.139-0.207,6.353-0.207,9.561    c0,5.674,0.213,11.189,0.629,16.422h-1.706h-1.2l-0.105,1.194c-1.664,18.9-5.236,25.016-6.705,25.016    c-2.458,0-7.041-13.162-7.425-39.39C28.142,51.063,28.177,43.851,28.248,41.496z"/></g></g><text x="0" y="115" fill="#000000" font-size="5px" font-weight="bold" font-family="'Helvetica Neue', Helvetica, Arial-Unicode, Arial, Sans-serif">Created by Louis Dawson</text><text x="0" y="120" fill="#000000" font-size="5px" font-weight="bold" font-family="'Helvetica Neue', Helvetica, Arial-Unicode, Arial, Sans-serif">from the Noun Project</text></svg>